<svg xmlns="http://www.w3.org/2000/svg" xmlns:xlink="http://www.w3.org/1999/xlink" width="0" height="0" style="position:absolute">
	
		<symbol id="facebook" viewBox="0 0 32 32">
			<path fill-rule="evenodd" clip-rule="evenodd" d="M0 16C0 7.163 7.163 0 16 0s16 7.163 16 16-7.163 16-16 16S0 24.837 0 16zm16-8c4.4 0 8 3.6 8 8 0 4-2.9 7.4-6.9 8v-5.7H19l.4-2.3h-2.2v-1.5c0-.6.3-1.2 1.3-1.2h1v-2s-.9-.2-1.8-.2c-1.8 0-3 1.1-3 3.1V16h-2v2.3h2v5.6C10.9 23.3 8 20 8 16c0-4.4 3.6-8 8-8z" fill="#fff"></path>
		</symbol>
	
		<symbol id="instagram" viewBox="0 0 32 32">
			<path d="M16 18.8c-1.5 0-2.8-1.2-2.8-2.8 0-1.5 1.2-2.8 2.8-2.8 1.5 0 2.8 1.2 2.8 2.8 0 1.5-1.3 2.8-2.8 2.8z" fill="#fff"></path><path fill-rule="evenodd" clip-rule="evenodd" d="M19.4 9.2h-6.8c-.8.1-1.2.2-1.5.3-.4.1-.7.3-1 .6-.237.237-.35.475-.485.762-.036.075-.073.155-.115.238a5.48 5.48 0 0 1-.052.148A3.53 3.53 0 0 0 9.2 12.6v6.8c.1.8.2 1.2.3 1.5.1.4.3.7.6 1 .237.237.475.35.762.485.075.036.155.073.238.115.046.015.095.033.148.052a3.53 3.53 0 0 0 1.352.248h6.8c.8-.1 1.2-.2 1.5-.3.4-.1.7-.3 1-.6.237-.237.35-.475.485-.762.036-.075.073-.155.115-.238.015-.046.033-.095.052-.147A3.53 3.53 0 0 0 22.8 19.4v-6.8c-.1-.8-.2-1.2-.3-1.5-.1-.4-.3-.7-.6-1-.237-.237-.475-.35-.762-.485A11.461 11.461 0 0 1 20.9 9.5c-.046-.015-.095-.033-.147-.052A3.53 3.53 0 0 0 19.4 9.2zM16 11.7c-2.4 0-4.3 1.9-4.3 4.3s1.9 4.3 4.3 4.3 4.3-1.9 4.3-4.3-1.9-4.3-4.3-4.3zm5.4-.1a1 1 0 1 1-2 0 1 1 0 0 1 2 0z" fill="#fff"></path><path fill-rule="evenodd" clip-rule="evenodd" d="M0 16C0 7.163 7.163 0 16 0s16 7.163 16 16-7.163 16-16 16S0 24.837 0 16zm12.6-8.3h6.8c.9.1 1.5.2 2 .4.6.3 1 .5 1.5 1s.8 1 1 1.5c.2.5.4 1.1.4 2v6.8c-.1.9-.2 1.5-.4 2-.3.6-.5 1-1 1.5s-1 .8-1.5 1c-.5.2-1.1.4-2 .4h-6.8c-.9-.1-1.5-.2-2-.4-.6-.3-1-.5-1.5-1s-.8-1-1-1.5c-.2-.5-.4-1.1-.4-2v-6.8c.1-.9.2-1.5.4-2 .3-.6.5-1 1-1.5s1-.8 1.5-1c.5-.2 1.1-.4 2-.4z" fill="#fff"></path>
		</symbol>
	
		<symbol id="menu-all" viewBox="0 0 24 24">
			<path d="M21.66 10.44l-.98 4.18c-.84 3.61-2.5 5.07-5.62 4.77-.5-.04-1.04-.13-1.62-.27l-1.68-.4c-4.17-.99-5.46-3.05-4.48-7.23l.98-4.19c.2-.85.44-1.59.74-2.2 1.17-2.42 3.16-3.07 6.5-2.28l1.67.39c4.19.98 5.47 3.05 4.49 7.23z"></path><path d="M15.06 19.39c-.62.42-1.4.77-2.35 1.08l-1.58.52c-3.97 1.28-6.06.21-7.35-3.76L2.5 13.28c-1.28-3.97-.22-6.07 3.75-7.35l1.58-.52c.41-.13.8-.24 1.17-.31-.3.61-.54 1.35-.74 2.2l-.98 4.19c-.98 4.18.31 6.24 4.48 7.23l1.68.4c.58.14 1.12.23 1.62.27zM12.64 8.53l4.85 1.23M11.66 12.4l2.9.74"></path>
		</symbol>
	
		<symbol id="menu-courses" viewBox="0 0 24 24">
			<path d="M10.05 2.53L4.03 6.46c-1.93 1.26-1.93 4.08 0 5.34l6.02 3.93c1.08.71 2.86.71 3.94 0l5.99-3.93c1.92-1.26 1.92-4.07 0-5.33l-5.99-3.93c-1.08-.72-2.86-.72-3.94-.01z"></path><path d="M5.63 13.08l-.01 4.69c0 1.27.98 2.63 2.18 3.03l3.19 1.06c.55.18 1.46.18 2.02 0l3.19-1.06c1.2-.4 2.18-1.76 2.18-3.03v-4.64M21.4 15V9"></path>
		</symbol>
	
		<symbol id="menu-faq" viewBox="0 0 24 24">
			<path d="M8.3 18.04v-1.16C6 15.49 4.11 12.78 4.11 9.9c0-4.95 4.55-8.83 9.69-7.71 2.26.5 4.24 2 5.27 4.07 2.09 4.2-.11 8.66-3.34 10.61v1.16c0 .29.11.96-.96.96H9.26c-1.1.01-.96-.42-.96-.95zM8.5 22c2.29-.65 4.71-.65 7 0"></path>
		</symbol>
	
		<symbol id="menu-speakers" viewBox="0 0 24 24">
			<path d="M12 19c3.31 0 6-2.69 6-6V8c0-3.31-2.69-6-6-6S6 4.69 6 8v5c0 3.31 2.69 6 6 6z"></path><path d="M3 11v2a9 9 0 0 0 18 0v-2M9.11 7.48a8 8 0 0 1 5.5 0M10.03 10.48c1.2-.33 2.47-.33 3.67 0"></path>
		</symbol>
	
		<symbol id="ring" viewBox="0 0 24 24">
			<path d="M12.02 2.91c-3.31 0-6 2.69-6 6v2.89c0 .61-.26 1.54-.57 2.06L4.3 15.77c-.71 1.18-.22 2.49 1.08 2.93 4.31 1.44 8.96 1.44 13.27 0 1.21-.4 1.74-1.83 1.08-2.93l-1.15-1.91c-.3-.52-.56-1.45-.56-2.06V8.91c0-3.3-2.7-6-6-6z" stroke="#fff" stroke-width="1.5" stroke-miterlimit="10" stroke-linecap="round"></path><path d="M13.87 3.2a6.754 6.754 0 0 0-3.7 0c.29-.74 1.01-1.26 1.85-1.26.84 0 1.56.52 1.85 1.26z" stroke="#fff" stroke-width="1.5" stroke-miterlimit="10" stroke-linecap="round" stroke-linejoin="round"></path><path d="M15.02 19.06c0 1.65-1.35 3-3 3-.82 0-1.58-.34-2.12-.88a3.01 3.01 0 0 1-.88-2.12" stroke="#fff" stroke-width="1.5" stroke-miterlimit="10"></path>
		</symbol>
	
		<symbol id="telegram" viewBox="0 0 32 32">
			<path fill-rule="evenodd" clip-rule="evenodd" d="M16 32C7.163 32 0 24.837 0 16S7.163 0 16 0s16 7.163 16 16-7.163 16-16 16zm.692-19.993c-1.433.596-4.297 1.83-8.592 3.701-.698.278-1.063.549-1.096.814-.056.449.505.625 1.27.866.104.032.212.066.322.102.752.245 1.764.53 2.29.542.477.01 1.01-.186 1.598-.59 4.013-2.709 6.084-4.078 6.214-4.108.092-.02.22-.047.305.03.087.076.078.221.069.26-.056.237-2.26 2.287-3.4 3.347-.356.33-.608.565-.66.619-.115.12-.233.233-.346.342-.699.674-1.223 1.179.029 2.004.602.396 1.083.724 1.563 1.051.525.358 1.048.714 1.725 1.158.172.113.337.23.497.344.61.436 1.16.826 1.837.764.393-.036.8-.406 1.007-1.51.488-2.61 1.447-8.263 1.669-10.592a2.602 2.602 0 0 0-.025-.58.621.621 0 0 0-.21-.4c-.176-.143-.448-.173-.57-.17-.554.009-1.405.305-5.496 2.006z" fill="#fff"></path>
		</symbol>
	
		<symbol id="timer" viewBox="0 0 36 36">
			<path d="M31.125 19.875C31.125 27.12 25.245 33 18 33S4.875 27.12 4.875 19.875 10.755 6.75 18 6.75s13.125 5.88 13.125 13.125zM18 12v7.5" stroke="#fff" stroke-width="1.5" stroke-linecap="round" stroke-linejoin="round"></path><path d="M13.5 3h9" stroke="#fff" stroke-width="1.5" stroke-miterlimit="10" stroke-linecap="round" stroke-linejoin="round"></path>
		</symbol>
	
		<symbol id="tooggler-white" viewBox="0 0 20 20">
			<path d="M16.6 7.458l-5.433 5.434a1.655 1.655 0 0 1-2.334 0L3.4 7.458" stroke="#fff" stroke-width="1.5" stroke-miterlimit="10" stroke-linecap="round" stroke-linejoin="round"></path>
		</symbol>
	
		<symbol id="vk" viewBox="0 0 32 32">
			<path d="M12.334 13h-1.167c-.334 0-.4.157-.4.33 0 .309.395 1.842 1.842 3.869.964 1.384 2.323 2.134 3.559 2.134.742 0 .833-.166.833-.453v-1.047c0-.333.07-.4.305-.4.174 0 .47.087 1.163.754.235.236.412.433.556.593.34.378.498.553.81.553h1.167c.334 0 .5-.166.404-.495-.105-.328-.483-.804-.984-1.367a7.45 7.45 0 0 0-.464-.483 3.582 3.582 0 0 1-.34-.358c-.173-.222-.123-.321 0-.519 0 0 1.422-2.002 1.57-2.682.075-.247 0-.429-.352-.429h-1.167a.504.504 0 0 0-.508.33s-.593 1.446-1.434 2.385c-.272.272-.396.359-.544.359-.074 0-.182-.087-.182-.334V13.43c0-.297-.086-.429-.333-.429h-1.834c-.185 0-.297.138-.297.268 0 .107.061.183.14.28.126.157.297.368.324.857v1.718c0 .377-.068.445-.216.445-.396 0-1.358-1.452-1.93-3.114-.11-.324-.223-.454-.521-.454z" fill="#fff"></path><path fill-rule="evenodd" clip-rule="evenodd" d="M16 0c8.837 0 16 7.163 16 16s-7.163 16-16 16S0 24.837 0 16 7.163 0 16 0zM8 15.667c0-3.614 0-5.421 1.123-6.544C10.246 8 12.053 8 15.667 8h.666c3.614 0 5.422 0 6.544 1.123C24 10.246 24 12.053 24 15.667v.666c0 3.614 0 5.422-1.123 6.544C21.755 24 19.947 24 16.333 24h-.666c-3.614 0-5.421 0-6.544-1.123C8 21.755 8 19.947 8 16.333v-.666z" fill="#fff"></path>
		</symbol>
	
</svg>
